<svg id="US_UK_Download_on_the" data-name="US UK Download on the" xmlns="http://www.w3.org/2000/svg" xmlns:xlink="http://www.w3.org/1999/xlink" viewBox="0 0 367.25 553.58"><defs><style>.cls-1,.cls-2{fill:none;}.cls-2{stroke:#81d4fa;stroke-miterlimit:10;stroke-width:5px;opacity:0.18;}.cls-3{fill:#02579a;}.cls-4{fill:#0277bd;}.cls-5{fill:#039be6;}.cls-6{fill:#3c2692;}.cls-7{fill:#4e33a1;}.cls-8{fill:#6640b0;}.cls-9{fill:#242c7e;}.cls-10{fill:#333e93;}.cls-11{fill:#4453ab;}.cls-12,.cls-14{fill:#fff;}.cls-13{clip-path:url(#clip-path);}.cls-14{fill-rule:evenodd;}</style><clipPath id="clip-path"><rect class="cls-1" x="229.03" y="28.83" width="33.92" height="22.75"/></clipPath></defs><title>diagram</title><path class="cls-2" d="M69.69,453.21h-47c-11,0-20-11.06-20-24.71V261.42c0-13.65,9-24.71,20-24.71h322c11,0,20-11.06,20-24.71V64.92c0-13.65-9-24.71-20-24.71h-64"/><circle class="cls-3" cx="245.99" cy="40.21" r="40"/><circle class="cls-4" cx="182.69" cy="40.21" r="40"/><circle class="cls-5" cx="119.39" cy="40.21" r="40"/><circle class="cls-6" cx="253.9" cy="453.21" r="45"/><circle class="cls-7" cx="182.69" cy="453.21" r="45"/><circle class="cls-8" cx="111.47" cy="453.21" r="45"/><circle class="cls-9" cx="119.39" cy="236.21" r="40"/><circle class="cls-10" cx="182.69" cy="236.21" r="40"/><circle class="cls-11" cx="245.99" cy="236.21" r="40"/><path class="cls-12" d="M197.16,25.73a5.22,5.22,0,0,0-7.37,0L168.9,46.62l0,0,0,0a.59.59,0,0,0-.07.14l0,0v0l-2,8.6a.54.54,0,0,0,0,.12v0a.56.56,0,0,0,0,.19l0,0a.53.53,0,0,0,.12.17.54.54,0,0,0,.19.13.59.59,0,0,0,.22,0h.14l8.6-2,0,0,.06,0,.12-.07,0,0h0l20.89-20.89a5.22,5.22,0,0,0,0-7.37Zm-.82.82a4.06,4.06,0,0,1,.38,5.29l-5.67-5.67a4.06,4.06,0,0,1,5.29.38Zm-2.87,8.6-5.74-5.73.82-.82,5.73,5.73ZM169.56,53.34a.58.58,0,0,0-.82,0l-.44.44,1.48-6.21,2.56-.29-.33,3a.35.35,0,0,1,0,.13.29.29,0,0,0,0,.05.53.53,0,0,0,0,.1.51.51,0,0,0,.05.1l.06.07.09.08.08,0,.12,0,.06,0h.13l3-.33-.29,2.56-6.21,1.48.44-.44a.58.58,0,0,0,0-.82Zm7.27-3.17,13-13a.58.58,0,0,0-.82-.82l-13,13-2.77.31.31-2.77,13-13a.58.58,0,1,0-.82-.82l-13,13-1.84.2,16-16L192.66,36l-16,16Zm18.29-16.65-5.74-5.74.82-.82,5.73,5.74Zm0,0"/><path class="cls-12" d="M130,54.95a.68.68,0,0,1-.48-.2l-7.26-7.26a.54.54,0,0,0-.38-.16h-.07a.54.54,0,0,0-.4.26l-3,5.18a.68.68,0,0,1-.59.34.7.7,0,0,1-.63-.43L108,29.59a.68.68,0,0,1,.63-.93.67.67,0,0,1,.25,0l23.09,9.21a.68.68,0,0,1,.09,1.22l-5.18,3a.54.54,0,0,0-.11.85L134,50.24a.68.68,0,0,1,0,1l-3.54,3.54A.67.67,0,0,1,130,54.95Zm-8.38-9.75a.69.69,0,0,1,.48.2l7.52,7.52a.54.54,0,0,0,.76,0l1.82-1.82a.54.54,0,0,0,0-.76l-7.52-7.52a.68.68,0,0,1,.14-1.07l4.38-2.53a.54.54,0,0,0-.07-1L111,31a.54.54,0,0,0-.7.7l7.23,18.12a.54.54,0,0,0,.46.34h0a.54.54,0,0,0,.47-.27L121,45.54a.68.68,0,0,1,.5-.34Z"/><path class="cls-12" d="M103.61,22.64a1.22,1.22,0,0,0-1.73,1.73l2.71,2.71a1.22,1.22,0,1,0,1.72-1.73Zm0,0"/><path class="cls-12" d="M104.53,31.07a1.22,1.22,0,0,0-1.22-1.22H99.47a1.22,1.22,0,0,0,0,2.44h3.83a1.22,1.22,0,0,0,1.22-1.22Zm0,0"/><path class="cls-12" d="M104,34.84l-2.71,2.71A1.22,1.22,0,1,0,103,39.27l2.71-2.71A1.22,1.22,0,1,0,104,34.84Zm0,0"/><path class="cls-12" d="M110.32,25.28a1.22,1.22,0,0,0,1.22-1.22V20.23a1.22,1.22,0,0,0-2.44,0v3.83a1.22,1.22,0,0,0,1.22,1.22Zm0,0"/><path class="cls-12" d="M114.94,26.87a1.22,1.22,0,0,0,.86-.36l2.71-2.71a1.22,1.22,0,1,0-1.72-1.73l-2.71,2.71a1.22,1.22,0,0,0,.86,2.08Zm0,0"/><g class="cls-13"><path class="cls-12" d="M260.89,28.83H231.09A2.06,2.06,0,0,0,229,30.88V49.52a2.06,2.06,0,0,0,2.06,2.06h29.81A2.06,2.06,0,0,0,263,49.52V30.88a2.06,2.06,0,0,0-2.06-2.06Zm-30.43,5.36h31.06v4H230.46Zm.63-3.93h29.81a.63.63,0,0,1,.63.62v1.87H230.46V30.88a.63.63,0,0,1,.63-.62Zm29.81,19.89H231.09a.63.63,0,0,1-.63-.63v-9.9h31.06v9.9a.63.63,0,0,1-.63.63Zm0,0"/></g><path class="cls-12" d="M259.17,45.15H243.54a.72.72,0,0,0,0,1.43h15.64a.72.72,0,1,0,0-1.43Zm0,0"/><path class="cls-14" d="M251.26,230.14a.88.88,0,0,0-1.2.32l-5.59,9.69-3.13-2.89a.87.87,0,1,0-1.28,1.2l4,3.69a.88.88,0,0,0,1.24,0c.11-.1,6.28-10.85,6.28-10.85a.87.87,0,0,0-.32-1.2ZM246,222.21a14,14,0,1,0,14,14,14,14,0,0,0-14-14Zm0,26.25a12.25,12.25,0,1,1,12.25-12.25A12.25,12.25,0,0,1,246,248.46Zm0,0"/><path class="cls-12" d="M196.78,223.08h-4.46v-1.64a.49.49,0,0,0-.49-.49H173.55a.49.49,0,0,0-.49.49v1.64h-4.46a1.16,1.16,0,0,0-1.16,1.16V245.6a1.16,1.16,0,0,0,1.16,1.16h10.63v3.72h-4.59a.49.49,0,0,0,0,1h14a.49.49,0,0,0,0-1h-2.44v-3.72h2a.49.49,0,0,0,0-1H168.59a.19.19,0,0,1-.18-.18V224.24a.19.19,0,0,1,.18-.18h4.46v17.77h-3.12a.49.49,0,0,0,0,1h18.22a.49.49,0,0,0,0-1h-3.82v-4a.49.49,0,0,0-.49-.49h-7.7a.49.49,0,0,0-.49.49v4H174v-19.9h17.31v4.43a.49.49,0,0,0,1,0v-2.31h4.46a.19.19,0,0,1,.18.18V245.6a.19.19,0,0,1-.18.18H195.5a.49.49,0,1,0,0,1h1.28a1.16,1.16,0,0,0,1.16-1.16V224.24A1.16,1.16,0,0,0,196.78,223.08Zm-11.6,27.4h-5v-3.72h5Zm-8.55-12.15h6.73v3.49h-6.73Z"/><path class="cls-12" d="M194,232.55v-.1h0l-1.73-4.3a.49.49,0,0,0-.9,0l-1.73,4.3h0v.12s0,0,0,0v16.62a2.22,2.22,0,1,0,4.43,0V232.62s0,0,0,0v0Zm-3.45.56h2.48V247h-2.48Zm1.24-3.49,1,2.51h-2Zm0,20.87a1.24,1.24,0,0,1-1.24-1.24V248h2.48v1.26A1.24,1.24,0,0,1,191.83,250.49Z"/><path class="cls-12" d="M176.14,228h13.09a.49.49,0,0,0,.49-.49V224a.49.49,0,0,0-.49-.49H176.14a.49.49,0,0,0-.49.49v3.43a.49.49,0,0,0,.49.49Zm.49-3.43h12.12V227H176.63v-2.45Z"/><path class="cls-12" d="M189.23,228.93H176.14a.49.49,0,1,0,0,1h13.09a.49.49,0,1,0,0-1Z"/><path class="cls-12" d="M183.84,231.52h-7.7a.49.49,0,1,0,0,1h7.7a.49.49,0,0,0,0-1Z"/><path class="cls-12" d="M188.25,231.52h-2.45a.49.49,0,1,0,0,1h2.45a.49.49,0,0,0,0-1Z"/><path class="cls-12" d="M183.84,233.47h-7.7a.49.49,0,1,0,0,1h7.7a.49.49,0,0,0,0-1Z"/><path class="cls-12" d="M188.15,233.47h-2.36a.49.49,0,1,0,0,1h2.36a.49.49,0,0,0,0-1Z"/><path class="cls-12" d="M183.84,235.42h-7.7a.49.49,0,0,0,0,1h7.7a.49.49,0,0,0,0-1Z"/><path class="cls-12" d="M188.15,235.42h-2.36a.49.49,0,1,0,0,1h2.36a.49.49,0,0,0,0-1Z"/><path class="cls-12" d="M124.59,469.48a2.94,2.94,0,0,1-2.12-.88L117,463.11a3.09,3.09,0,0,1-.91-2.2,3.14,3.14,0,0,1,.41-1.54.4.4,0,0,0-.07-.48l-1.75-1.75a.4.4,0,0,0-.54,0,11.51,11.51,0,1,1,1.26-1.26.4.4,0,0,0,0,.54l1.75,1.75a.4.4,0,0,0,.48.06,3.1,3.1,0,0,1,3.74.49l5.42,5.41a3.18,3.18,0,0,1,.29,4.25,3.35,3.35,0,0,1-2.49,1.1Zm-5.44-10.64a2,2,0,0,0-1.42.61,2,2,0,0,0-.64,1.44,2.08,2.08,0,0,0,.64,1.47l5.49,5.49a2,2,0,0,0,1.43.55,2.14,2.14,0,0,0,1.61-.7,2.11,2.11,0,0,0-.2-2.84l-5.42-5.41A2.14,2.14,0,0,0,119.15,458.84ZM104,451.42a.41.41,0,0,0-.16,0,7.2,7.2,0,0,0-4.07,4.46.4.4,0,0,0,.12.43,10.39,10.39,0,0,0,13.49,0,.4.4,0,0,0,.12-.43,7.2,7.2,0,0,0-4.07-4.46.41.41,0,0,0-.16,0,.4.4,0,0,0-.33.18l-1.87,2.86a.52.52,0,0,1-.44.24.53.53,0,0,1-.44-.24l-1.87-2.86A.4.4,0,0,0,104,451.42Zm4.91-1.25.16,0a8.3,8.3,0,0,1,5.13,4.52.4.4,0,0,0,.32.23h0a.4.4,0,0,0,.32-.15,10.3,10.3,0,0,0,2.2-6.39,10.42,10.42,0,0,0-20.3-3.32.4.4,0,0,0,.38.53h3.42a.53.53,0,1,1,0,1.05H96.73a.4.4,0,0,0-.4.35,10.38,10.38,0,0,0-.1,1.39c0,.18,0,.36,0,.54a.4.4,0,0,0,.4.38h1.62a.53.53,0,0,1,0,1.05H96.94a.4.4,0,0,0-.39.49,10.4,10.4,0,0,0,1.9,3.92.4.4,0,0,0,.32.15h0a.4.4,0,0,0,.32-.23,8.28,8.28,0,0,1,5.13-4.51l.15,0a.52.52,0,0,1,.44.24l1.49,2.29a.4.4,0,0,0,.34.18h0a.4.4,0,0,0,.33-.18l1.49-2.29A.52.52,0,0,1,108.93,450.17Z"/><path class="cls-12" d="M106.67,440a4.2,4.2,0,1,0,4.2,4.2A4.21,4.21,0,0,0,106.67,440Zm0,6.55a2.35,2.35,0,1,1,2.35-2.35A2.35,2.35,0,0,1,106.67,446.59Z"/><path class="cls-12" d="M106.67,448a3.8,3.8,0,1,1,3.8-3.8A3.81,3.81,0,0,1,106.67,448Zm0-6.55a2.75,2.75,0,1,0,2.75,2.75A2.75,2.75,0,0,0,106.67,441.5Z"/><path class="cls-12" d="M242.75,458a2.89,2.89,0,0,1-1.74-.59l-6-4.54a.48.48,0,0,1,.09-.81l2.81-1.31a.47.47,0,0,1,.2,0,.48.48,0,0,1,.23.06l3.28,1.77a.3.3,0,0,0,.14,0,.3.3,0,0,0,.14,0l6.3-3.47a.3.3,0,0,0,0-.5l-7.35-5.58a.48.48,0,0,1,.09-.81l4.12-1.92a.47.47,0,0,1,.2,0,.48.48,0,0,1,.23.06l9.28,5a.3.3,0,0,0,.14,0,.3.3,0,0,0,.14,0l9.59-5.29a10.53,10.53,0,0,1,4.45-1.22,4.68,4.68,0,0,1,1.58.25,3.3,3.3,0,0,1,1.93,1.73l.22.47a2.36,2.36,0,0,1,0,2,3,3,0,0,1-1.46,1.39L247,456.27,244,457.7A2.86,2.86,0,0,1,242.75,458Zm-4.64-6.25-.13,0-1.29.6a.3.3,0,0,0-.05.51l4.95,3.76a1.91,1.91,0,0,0,2,.21l3.06-1.43L271,443.73a2.13,2.13,0,0,0,.93-.79,1.39,1.39,0,0,0,.05-1.35l-.22-.47a.38.38,0,0,0-.19-.19.52.52,0,0,0-.16,0l-.09,0-3.51,1.76a.48.48,0,0,1-.64-.21.48.48,0,0,1,.21-.64l2.87-1.43a.3.3,0,0,0-.05-.56,3.91,3.91,0,0,0-1.08-.14,9.67,9.67,0,0,0-4,1.1l-8.71,4.8a.3.3,0,0,0,0,.53l1.83,1a.48.48,0,0,1,0,.85l-6.41,3a.48.48,0,0,1-.49-.05l-1.75-1.33a.3.3,0,0,0-.33,0l-7.28,4a.48.48,0,0,1-.46,0l-3.31-1.79A.3.3,0,0,0,238.1,451.73Zm7.19-10.51-.13,0-2.59,1.21a.3.3,0,0,0-.05.51l9,6.88a.3.3,0,0,0,.18.06l.13,0,.77-.36a.3.3,0,0,0,.05-.51l-2-1.49a.48.48,0,0,1-.1-.67.48.48,0,0,1,.67-.1l2.71,2a.3.3,0,0,0,.18.06l.13,0,2.21-1a.3.3,0,0,0,0-.54l-11-6A.3.3,0,0,0,245.3,441.21Z"/><path class="cls-12" d="M236.81,463.85a.48.48,0,1,1,0-1H263.1a.48.48,0,1,1,0,1Z"/><path class="cls-12" d="M267,463.85a.48.48,0,1,1,0-1h2.79a.48.48,0,1,1,0,1Z"/><path class="cls-12" d="M241,467.69a.48.48,0,1,1,0-1h12.84a.48.48,0,0,1,0,1Z"/><path class="cls-12" d="M235.15,448.31a.48.48,0,0,1-.44-.3.47.47,0,0,1,0-.37.47.47,0,0,1,.26-.26l5.15-2.1a.48.48,0,0,1,.62.26.48.48,0,0,1-.26.62l-5.15,2.1A.48.48,0,0,1,235.15,448.31Z"/><path class="cls-12" d="M196.18,450.1h-3.52a.59.59,0,1,0,0,1.17h3.52a.59.59,0,0,0,0-1.17Zm0,0"/><path class="cls-12" d="M169.19,451.28h21.12a.59.59,0,0,0,0-1.17H169.19a.59.59,0,1,0,0,1.17Zm0,0"/><path class="cls-12" d="M196.18,446.58H184.45a.59.59,0,0,0,0,1.17h11.73a.59.59,0,0,0,0-1.17Zm0,0"/><path class="cls-12" d="M169.19,447.76H182.1a.59.59,0,1,0,0-1.17H169.19a.59.59,0,1,0,0,1.17Zm0,0"/><path class="cls-12" d="M196.18,453.62H174.47a.59.59,0,0,0,0,1.17h21.71a.59.59,0,0,0,0-1.17Zm0,0"/><path class="cls-12" d="M169.19,454.8h2.93a.59.59,0,0,0,0-1.17h-2.93a.59.59,0,1,0,0,1.17Zm0,0"/><path class="cls-12" d="M196.18,457.14h-27a.59.59,0,1,0,0,1.17h27a.59.59,0,0,0,0-1.17Zm0,0"/><path class="cls-12" d="M196.18,443.06h-27a.59.59,0,1,0,0,1.17h27a.59.59,0,0,0,0-1.17Zm0,0"/><path class="cls-12" d="M197.35,438.37H168a4.11,4.11,0,0,0-4.11,4.11V458.9a4.11,4.11,0,0,0,3.52,4.06v3.91a1.17,1.17,0,0,0,2,.83l4.69-4.69h23.22a4.11,4.11,0,0,0,4.11-4.11V442.48a4.11,4.11,0,0,0-4.11-4.11Zm2.93,20.53a2.94,2.94,0,0,1-2.93,2.93H173.89a.59.59,0,0,0-.42.17l-4.87,4.86v-4.45a.59.59,0,0,0-.59-.59,2.94,2.94,0,0,1-2.93-2.93V442.48a2.94,2.94,0,0,1,2.93-2.93h29.33a2.94,2.94,0,0,1,2.93,2.93Zm0,0"/><path class="cls-12" d="M127.23,225.1l-5.68-5.68a2.6,2.6,0,1,0-4.34,0l-5.68,5.68h-9V249h33.64V225.1Zm-7.84-8.67a1.56,1.56,0,1,1-1.56,1.56A1.56,1.56,0,0,1,119.39,216.43ZM118,220.16a2.6,2.6,0,0,0,2.87,0l4.94,4.94H113ZM103.61,248v-1.73h24.45v-1H103.61V228.57H110v-1h-6.42v-1.39h31.56v1.39h-6.42v1h6.42v16.65h-5v1h5V248Z"/><path class="cls-12" d="M119.39,230.65a4,4,0,0,0-4,4v4.16a4,4,0,0,0,8,0v-4.16a4,4,0,0,0-4-4Zm2.95,8.15a2.95,2.95,0,0,1-5.9,0v-4.16a2.95,2.95,0,0,1,5.9,0Z"/><path class="cls-12" d="M112.28,238.9a2.9,2.9,0,0,1-2.95,2.85,3,3,0,0,1-2.09-.85,2.77,2.77,0,0,1-.86-2h-1a3.8,3.8,0,0,0,1.18,2.75,4,4,0,0,0,2.81,1.14,3.94,3.94,0,0,0,4-3.89v-8.42h-1Z"/><path class="cls-12" d="M133.43,239.14a3.6,3.6,0,0,0-.95-2.43,3.6,3.6,0,0,0,.95-2.43,3.65,3.65,0,0,0-3.64-3.64h-4.33v12.14h4.33A3.65,3.65,0,0,0,133.43,239.14Zm-3.64,2.6H126.5V231.69h3.29a2.59,2.59,0,0,1,1.61,4.62l-.5.41.5.41a2.59,2.59,0,0,1-1.61,4.62Z"/><rect class="cls-12" x="116.27" y="227.53" width="6.24" height="1.04"/><rect class="cls-12" x="123.89" y="227.53" width="1.39" height="1.04"/><rect class="cls-12" x="113.49" y="227.53" width="1.39" height="1.04"/></svg>