<?xml version="1.0" encoding="utf-8"?>
<!-- Generator: Adobe Illustrator 22.0.1, SVG Export Plug-In . SVG Version: 6.00 Build 0)  -->
<svg version="1.1" id="Layer_1" xmlns="http://www.w3.org/2000/svg" xmlns:xlink="http://www.w3.org/1999/xlink" x="0px" y="0px"
	 viewBox="0 0 60 60" style="enable-background:new 0 0 60 60;" xml:space="preserve">
<style type="text/css">
	.st0{fill:#FFFFFF;}
</style>
<g>
	<path class="st0" d="M30,0C13.4,0,0,13.4,0,30s13.4,30,30,30s30-13.4,30-30S46.6,0,30,0z M45,36.4c0,5-4,9-9,9H24c-5,0-9-4-9-9
		V23.6c0-5,4-9,9-9H36c5,0,9,4,9,9V36.4z"/>
	<path class="st0" d="M29.9,25.4c0,0-0.1,0-0.1,0c-1.1,0-2.2,0.4-3,1.2c-0.9,0.9-1.4,2.1-1.4,3.3c0,2.5,2,4.6,4.6,4.6
		c2.5,0,4.5-2,4.6-4.6C34.6,27.1,32.9,25.5,29.9,25.4z"/>
	<path class="st0" d="M36,17.9H24c-3.2,0-5.8,2.6-5.8,5.8v12.7c0,3.2,2.6,5.8,5.8,5.8H36c3.2,0,5.8-2.6,5.8-5.8V23.6
		C41.7,20.5,39.1,17.9,36,17.9z M38.5,30c0,2.3-0.9,4.4-2.5,6c-1.6,1.6-3.7,2.5-6,2.5c-4.7,0-8.5-3.8-8.5-8.5c0-2.3,1-4.6,2.6-6.2
		c1.6-1.6,3.8-2.4,6-2.3c2.6,0.1,4.8,1,6.4,2.6C37.9,25.6,38.6,27.6,38.5,30L38.5,30z M38.1,23.7c-1,0-1.8-0.8-1.8-1.8
		s0.8-1.8,1.8-1.8s1.8,0.8,1.8,1.8S39.1,23.7,38.1,23.7z"/>
</g>
</svg>
