<?xml version="1.0" encoding="utf-8"?>
<!-- Generator: Adobe Illustrator 21.0.0, SVG Export Plug-In . SVG Version: 6.00 Build 0)  -->
<svg version="1.1" id="Layer_1" xmlns="http://www.w3.org/2000/svg" xmlns:xlink="http://www.w3.org/1999/xlink" x="0px" y="0px"
	 viewBox="0 0 60 60" style="enable-background:new 0 0 60 60;" xml:space="preserve">
<style type="text/css">
	.st0{fill:#FFFFFF;}
</style>
<g>
	<path class="st0" d="M31.8,27.8L31.8,27.8C31.8,27.8,31.8,27.8,31.8,27.8L31.8,27.8z"/>
	<path class="st0" d="M30,0C13.4,0,0,13.4,0,30c0,16.6,13.4,30,30,30c16.6,0,30-13.4,30-30C60,13.4,46.6,0,30,0z M21.8,44.3h-6.4V25
		h6.4V44.3z M18.6,22.4L18.6,22.4c-2.2,0-3.6-1.5-3.6-3.3c0-1.9,1.4-3.3,3.6-3.3c2.2,0,3.6,1.4,3.6,3.3
		C22.2,20.9,20.8,22.4,18.6,22.4z M45,44.3h-6.4V34c0-2.6-0.9-4.4-3.3-4.4c-1.8,0-2.8,1.2-3.3,2.4c-0.2,0.4-0.2,1-0.2,1.6v10.8h-6.4
		c0,0,0.1-17.5,0-19.3h6.4v2.7c0.9-1.3,2.4-3.2,5.8-3.2c4.2,0,7.4,2.8,7.4,8.7V44.3z"/>
</g>
</svg>
