<?xml version="1.0" encoding="UTF-8"?><svg id="Layer_1" xmlns="http://www.w3.org/2000/svg" viewBox="0 0 602 244"><path d="m593.2,37.8c-19,0-38,0-57,0-5.4,0-9,4.5-8.3,9.9.7,5.2,4,7.7,9.3,7.7,14.2,0,28.4,0,42.8,0-5.6,16.5-22.2,29-40,29.2-39.8.4-79.5.1-119.3.2-1.8,0-3.6.1-4.3-2.1-2.9-9.5-7.8-18.1-12.9-27.3h6.5c27.8,0,55.6,0,83.5,0,7.1,0,11.2-4.3,9.9-10.5-1.2-5.6-5.1-7.3-10.4-7.2-32.9,0-65.8,0-98.7.1-3.6,0-6.1-1.1-8.7-3.6-48-45.9-121.8-45.8-169.4.2-2.7,2.6-5.3,3.3-8.8,3.3-65,0-130.1,0-195.1-.2-5.4,0-9.5,1.2-12.3,6v7.1c1.7,1.5,1.7,3.8,2.4,5.8,9.3,24.3,25.4,40.9,51.9,45.4,3.4.6,4.7,2,6,5,9.6,22.8,25.6,38,50.6,42.2,3.6.6,4.7,2.1,5.9,5,8.6,20.3,22.4,35.2,44.4,40.9,12.4,3.3,25.3,2,38,2,3.8,0,6.4.9,9,4,47.4,57.1,137.7,57.4,185.4.5,2.9-3.4,5.7-4.5,9.9-4.5,10.9.1,22,.9,32.8-1.1,24.5-4.6,39.8-20.1,49.2-42.4.8-1.9.9-3.8,3.9-4.2,26.4-3.7,43.1-19.5,52.7-43.5,1-2.5,2.4-3.3,5-3.7,24.2-4,40.4-18.2,50.2-40.2,1.6-3.7,3.1-7.4,4.7-11.1v-7.1c-2.2-3-4.4-5.9-8.8-5.9ZM61.7,84.6c-18.8-.4-31.8-11.2-40.3-28.9h177c-5.1,9.1-10,17.9-13,27.5-.6,1.9-2.3,1.7-3.9,1.7-39.9,0-79.9.5-119.8-.3Zm50.3,46.2c-14.8-1.9-24.9-11.2-32.1-24-2-3.6-.9-4.2,2.7-4.1,15.7.1,31.3,0,47,0s30.6.1,45.8,0c3.9,0,5.2,1,4.6,4.9-1.2,7-1.3,14-.9,21.1.1,1.9.2,3.4-2.5,3.3-21.5-.6-43.1,1.6-64.5-1.2Zm55.9,47.2c-14.4-3-24.4-11.6-31.5-24.1-2.1-3.7-.8-4.1,2.7-4.1,13.1.1,26.2,0,39.3,0,2.1,0,3.7,0,4.4,2.6,2.2,9,5.7,17.7,10.2,26.6-8.9-.5-17,.6-25.2-1.1Zm129.5,48.2c-55.2-1.6-101.3-49-100.5-104.8.8-58.3,48.1-104.5,105.9-103.5,56.8,1,102.8,48.4,102.3,104.9-.6,59.3-50.2,105.2-107.7,103.5Zm168.3-72.8c-7.9,14.8-19.9,23.9-36.9,25.4-6.3.6-12.8,0-19.7,0,4.3-8.9,7.8-17.4,10.1-26.5.4-1.7,1.1-2.6,3.2-2.6,13.9,0,27.8.1,41.7,0,3.6,0,2.7,1.6,1.6,3.5Zm56.4-46.7c-8.8,15.8-21.9,24.6-40.1,25.2-8.8.3-17.6,0-26.4,0h0c-9.6,0-19.2,0-28.8,0-2.9,0-4.1-.5-3.8-3.8.7-7,.1-14.1-.9-21.1-.5-3.1.2-4.5,3.8-4.4,31.3.1,62.7.1,94,0,3.8,0,3.8,1.1,2.2,4Z" style="fill:#fff; stroke-width:0px;"/><path d="m366.6,91.9c-11.2-1.6-22.4-3.3-33.6-4.8-3.9-.5-6.6-1.8-8.4-5.8-4.6-10.1-9.7-20-14.6-30-1.8-3.7-4.2-6.4-8.8-6.5-4.9-.1-7.4,2.8-9.3,6.7-4.9,10-10,19.9-14.6,30-1.7,3.7-4.2,5.1-7.9,5.6-10.8,1.5-21.6,3.3-32.5,4.6-4.5.5-8,2-9.6,6.4-1.6,4.5.5,7.8,3.8,10.9,8.4,8,16.6,16.1,24.8,24.2,1.5,1.5,3,2.7,2.4,5.4-2.2,11.5-3.9,23.1-6.1,34.6-.9,4.6-.7,8.5,3.3,11.5,3.9,2.9,7.7,1.8,11.5-.2,10-5.3,20.1-10.5,30-15.9,2.9-1.6,5.2-1.5,8.1,0,10.3,5.6,20.7,10.9,31,16.4,3.6,1.9,7.1,2,10.4-.5,3.3-2.5,4.2-5.9,3.5-9.9-2.1-11.5-3.8-23.1-6.1-34.6-.6-3.2,0-5,2.2-7.1,8.4-8,16.6-16.1,24.9-24.2,2.3-2.2,4.3-4.6,4.1-8.1-.4-5.2-3.4-8-8.5-8.8Zm-37.3,32.3c-3.8,3.8-5.4,7.6-4.1,13.1,1.8,7.5,2.6,15.3,4,23.8-6.7-3.5-13.1-6.5-19-10-6.3-3.8-12-4.3-18.4-.1-5.9,3.8-12.3,6.6-19.3,10.3,1.5-8.7,2.6-16.7,4.2-24.6,1-4.8-.3-8.3-3.5-11.6-5.7-5.9-11.1-12-16.7-17.9,7-1.1,14.6-2.5,22.3-3.3,5.5-.5,8.9-3.1,11.2-8,3.3-7,6.8-13.9,10.7-21.9,3.8,7.6,7.5,14.2,10.4,21,2.5,5.6,6.1,8.4,12.4,8.9,7.4.6,14.6,2.2,21.8,3.3-5.4,5.8-10.6,11.7-16.2,17.2Z" style="fill:#fff; stroke-width:0px;"/></svg>